<?xml version="1.0" encoding="utf-8" standalone="no"?>
<!DOCTYPE svg PUBLIC "-//W3C//DTD SVG 1.1//EN"
  "http://www.w3.org/Graphics/SVG/1.1/DTD/svg11.dtd">
<svg xmlns:xlink="http://www.w3.org/1999/xlink" width="864pt" height="504pt" viewBox="0 0 864 504" xmlns="http://www.w3.org/2000/svg" version="1.1">
 <metadata>
  <rdf:RDF xmlns:dc="http://purl.org/dc/elements/1.1/" xmlns:cc="http://creativecommons.org/ns#" xmlns:rdf="http://www.w3.org/1999/02/22-rdf-syntax-ns#">
   <cc:Work>
    <dc:type rdf:resource="http://purl.org/dc/dcmitype/StillImage"/>
    <dc:date>2024-06-06T21:28:05.420100</dc:date>
    <dc:format>image/svg+xml</dc:format>
    <dc:creator>
     <cc:Agent>
      <dc:title>Matplotlib v3.8.0, https://matplotlib.org/</dc:title>
     </cc:Agent>
    </dc:creator>
   </cc:Work>
  </rdf:RDF>
 </metadata>
 <defs>
  <style type="text/css">*{stroke-linejoin: round; stroke-linecap: butt}</style>
 </defs>
 <g id="figure_1">
  <g id="patch_1">
   <path d="M 0 504 
L 864 504 
L 864 0 
L 0 0 
z
" style="fill: #ffffff"/>
  </g>
  <g id="axes_1">
   <g id="patch_2">
    <path d="M 108 448.56 
L 777.6 448.56 
L 777.6 60.48 
L 108 60.48 
z
" style="fill: #ffffff"/>
   </g>
   <g id="matplotlib.axis_1">
    <g id="xtick_1">
     <g id="line2d_1">
      <path d="M 149.251315 448.56 
L 149.251315 60.48 
" clip-path="url(#pcf28075978)" style="fill: none; stroke: #cccccc; stroke-width: 0.8; stroke-linecap: round"/>
     </g>
     <g id="line2d_2"/>
     <g id="text_1">
      <!-- 6 -->
      <g style="fill: #262626" transform="translate(146.470846 459.217813) scale(0.1 -0.1)">
       <defs>
        <path id="ArialMT-36" d="M 3184 3459 
L 2625 3416 
Q 2550 3747 2413 3897 
Q 2184 4138 1850 4138 
Q 1581 4138 1378 3988 
Q 1113 3794 959 3422 
Q 806 3050 800 2363 
Q 1003 2672 1297 2822 
Q 1591 2972 1913 2972 
Q 2475 2972 2870 2558 
Q 3266 2144 3266 1488 
Q 3266 1056 3080 686 
Q 2894 316 2569 119 
Q 2244 -78 1831 -78 
Q 1128 -78 684 439 
Q 241 956 241 2144 
Q 241 3472 731 4075 
Q 1159 4600 1884 4600 
Q 2425 4600 2770 4297 
Q 3116 3994 3184 3459 
z
M 888 1484 
Q 888 1194 1011 928 
Q 1134 663 1356 523 
Q 1578 384 1822 384 
Q 2178 384 2434 671 
Q 2691 959 2691 1453 
Q 2691 1928 2437 2201 
Q 2184 2475 1800 2475 
Q 1419 2475 1153 2201 
Q 888 1928 888 1484 
z
" transform="scale(0.015625)"/>
       </defs>
       <use xlink:href="#ArialMT-36"/>
      </g>
     </g>
    </g>
    <g id="xtick_2">
     <g id="line2d_3">
      <path d="M 180.151177 448.56 
L 180.151177 60.48 
" clip-path="url(#pcf28075978)" style="fill: none; stroke: #cccccc; stroke-width: 0.8; stroke-linecap: round"/>
     </g>
     <g id="line2d_4"/>
     <g id="text_2">
      <!-- 7 -->
      <g style="fill: #262626" transform="translate(177.370708 459.217813) scale(0.1 -0.1)">
       <defs>
        <path id="ArialMT-37" d="M 303 3981 
L 303 4522 
L 3269 4522 
L 3269 4084 
Q 2831 3619 2401 2847 
Q 1972 2075 1738 1259 
Q 1569 684 1522 0 
L 944 0 
Q 953 541 1156 1306 
Q 1359 2072 1739 2783 
Q 2119 3494 2547 3981 
L 303 3981 
z
" transform="scale(0.015625)"/>
       </defs>
       <use xlink:href="#ArialMT-37"/>
      </g>
     </g>
    </g>
    <g id="xtick_3">
     <g id="line2d_5">
      <path d="M 211.051038 448.56 
L 211.051038 60.48 
" clip-path="url(#pcf28075978)" style="fill: none; stroke: #cccccc; stroke-width: 0.8; stroke-linecap: round"/>
     </g>
     <g id="line2d_6"/>
     <g id="text_3">
      <!-- 8 -->
      <g style="fill: #262626" transform="translate(208.27057 459.217813) scale(0.1 -0.1)">
       <defs>
        <path id="ArialMT-38" d="M 1131 2484 
Q 781 2613 612 2850 
Q 444 3088 444 3419 
Q 444 3919 803 4259 
Q 1163 4600 1759 4600 
Q 2359 4600 2725 4251 
Q 3091 3903 3091 3403 
Q 3091 3084 2923 2848 
Q 2756 2613 2416 2484 
Q 2838 2347 3058 2040 
Q 3278 1734 3278 1309 
Q 3278 722 2862 322 
Q 2447 -78 1769 -78 
Q 1091 -78 675 323 
Q 259 725 259 1325 
Q 259 1772 486 2073 
Q 713 2375 1131 2484 
z
M 1019 3438 
Q 1019 3113 1228 2906 
Q 1438 2700 1772 2700 
Q 2097 2700 2305 2904 
Q 2513 3109 2513 3406 
Q 2513 3716 2298 3927 
Q 2084 4138 1766 4138 
Q 1444 4138 1231 3931 
Q 1019 3725 1019 3438 
z
M 838 1322 
Q 838 1081 952 856 
Q 1066 631 1291 507 
Q 1516 384 1775 384 
Q 2178 384 2440 643 
Q 2703 903 2703 1303 
Q 2703 1709 2433 1975 
Q 2163 2241 1756 2241 
Q 1359 2241 1098 1978 
Q 838 1716 838 1322 
z
" transform="scale(0.015625)"/>
       </defs>
       <use xlink:href="#ArialMT-38"/>
      </g>
     </g>
    </g>
    <g id="xtick_4">
     <g id="line2d_7">
      <path d="M 241.9509 448.56 
L 241.9509 60.48 
" clip-path="url(#pcf28075978)" style="fill: none; stroke: #cccccc; stroke-width: 0.8; stroke-linecap: round"/>
     </g>
     <g id="line2d_8"/>
     <g id="text_4">
      <!-- 12 -->
      <g style="fill: #262626" transform="translate(236.389962 459.217813) scale(0.1 -0.1)">
       <defs>
        <path id="ArialMT-31" d="M 2384 0 
L 1822 0 
L 1822 3584 
Q 1619 3391 1289 3197 
Q 959 3003 697 2906 
L 697 3450 
Q 1169 3672 1522 3987 
Q 1875 4303 2022 4600 
L 2384 4600 
L 2384 0 
z
" transform="scale(0.015625)"/>
        <path id="ArialMT-32" d="M 3222 541 
L 3222 0 
L 194 0 
Q 188 203 259 391 
Q 375 700 629 1000 
Q 884 1300 1366 1694 
Q 2113 2306 2375 2664 
Q 2638 3022 2638 3341 
Q 2638 3675 2398 3904 
Q 2159 4134 1775 4134 
Q 1369 4134 1125 3890 
Q 881 3647 878 3216 
L 300 3275 
Q 359 3922 746 4261 
Q 1134 4600 1788 4600 
Q 2447 4600 2831 4234 
Q 3216 3869 3216 3328 
Q 3216 3053 3103 2787 
Q 2991 2522 2730 2228 
Q 2469 1934 1863 1422 
Q 1356 997 1212 845 
Q 1069 694 975 541 
L 3222 541 
z
" transform="scale(0.015625)"/>
       </defs>
       <use xlink:href="#ArialMT-31"/>
       <use xlink:href="#ArialMT-32" x="55.615234"/>
      </g>
     </g>
    </g>
    <g id="xtick_5">
     <g id="line2d_9">
      <path d="M 272.850761 448.56 
L 272.850761 60.48 
" clip-path="url(#pcf28075978)" style="fill: none; stroke: #cccccc; stroke-width: 0.8; stroke-linecap: round"/>
     </g>
     <g id="line2d_10"/>
     <g id="text_5">
      <!-- 15 -->
      <g style="fill: #262626" transform="translate(267.289824 459.217813) scale(0.1 -0.1)">
       <defs>
        <path id="ArialMT-35" d="M 266 1200 
L 856 1250 
Q 922 819 1161 601 
Q 1400 384 1738 384 
Q 2144 384 2425 690 
Q 2706 997 2706 1503 
Q 2706 1984 2436 2262 
Q 2166 2541 1728 2541 
Q 1456 2541 1237 2417 
Q 1019 2294 894 2097 
L 366 2166 
L 809 4519 
L 3088 4519 
L 3088 3981 
L 1259 3981 
L 1013 2750 
Q 1425 3038 1878 3038 
Q 2478 3038 2890 2622 
Q 3303 2206 3303 1553 
Q 3303 931 2941 478 
Q 2500 -78 1738 -78 
Q 1113 -78 717 272 
Q 322 622 266 1200 
z
" transform="scale(0.015625)"/>
       </defs>
       <use xlink:href="#ArialMT-31"/>
       <use xlink:href="#ArialMT-35" x="55.615234"/>
      </g>
     </g>
    </g>
    <g id="xtick_6">
     <g id="line2d_11">
      <path d="M 303.750623 448.56 
L 303.750623 60.48 
" clip-path="url(#pcf28075978)" style="fill: none; stroke: #cccccc; stroke-width: 0.8; stroke-linecap: round"/>
     </g>
     <g id="line2d_12"/>
     <g id="text_6">
      <!-- 15 -->
      <g style="fill: #262626" transform="translate(298.189685 459.217813) scale(0.1 -0.1)">
       <use xlink:href="#ArialMT-31"/>
       <use xlink:href="#ArialMT-35" x="55.615234"/>
      </g>
     </g>
    </g>
    <g id="xtick_7">
     <g id="line2d_13">
      <path d="M 334.650485 448.56 
L 334.650485 60.48 
" clip-path="url(#pcf28075978)" style="fill: none; stroke: #cccccc; stroke-width: 0.8; stroke-linecap: round"/>
     </g>
     <g id="line2d_14"/>
     <g id="text_7">
      <!-- 16 -->
      <g style="fill: #262626" transform="translate(329.089547 459.217813) scale(0.1 -0.1)">
       <use xlink:href="#ArialMT-31"/>
       <use xlink:href="#ArialMT-36" x="55.615234"/>
      </g>
     </g>
    </g>
    <g id="xtick_8">
     <g id="line2d_15">
      <path d="M 365.550346 448.56 
L 365.550346 60.48 
" clip-path="url(#pcf28075978)" style="fill: none; stroke: #cccccc; stroke-width: 0.8; stroke-linecap: round"/>
     </g>
     <g id="line2d_16"/>
     <g id="text_8">
      <!-- 17 -->
      <g style="fill: #262626" transform="translate(359.989409 459.217813) scale(0.1 -0.1)">
       <use xlink:href="#ArialMT-31"/>
       <use xlink:href="#ArialMT-37" x="55.615234"/>
      </g>
     </g>
    </g>
    <g id="xtick_9">
     <g id="line2d_17">
      <path d="M 396.450208 448.56 
L 396.450208 60.48 
" clip-path="url(#pcf28075978)" style="fill: none; stroke: #cccccc; stroke-width: 0.8; stroke-linecap: round"/>
     </g>
     <g id="line2d_18"/>
     <g id="text_9">
      <!-- 18 -->
      <g style="fill: #262626" transform="translate(390.88927 459.217813) scale(0.1 -0.1)">
       <use xlink:href="#ArialMT-31"/>
       <use xlink:href="#ArialMT-38" x="55.615234"/>
      </g>
     </g>
    </g>
    <g id="xtick_10">
     <g id="line2d_19">
      <path d="M 427.350069 448.56 
L 427.350069 60.48 
" clip-path="url(#pcf28075978)" style="fill: none; stroke: #cccccc; stroke-width: 0.8; stroke-linecap: round"/>
     </g>
     <g id="line2d_20"/>
     <g id="text_10">
      <!-- 21 -->
      <g style="fill: #262626" transform="translate(421.789132 459.217813) scale(0.1 -0.1)">
       <use xlink:href="#ArialMT-32"/>
       <use xlink:href="#ArialMT-31" x="55.615234"/>
      </g>
     </g>
    </g>
    <g id="xtick_11">
     <g id="line2d_21">
      <path d="M 458.249931 448.56 
L 458.249931 60.48 
" clip-path="url(#pcf28075978)" style="fill: none; stroke: #cccccc; stroke-width: 0.8; stroke-linecap: round"/>
     </g>
     <g id="line2d_22"/>
     <g id="text_11">
      <!-- 22 -->
      <g style="fill: #262626" transform="translate(452.688993 459.217813) scale(0.1 -0.1)">
       <use xlink:href="#ArialMT-32"/>
       <use xlink:href="#ArialMT-32" x="55.615234"/>
      </g>
     </g>
    </g>
    <g id="xtick_12">
     <g id="line2d_23">
      <path d="M 489.149792 448.56 
L 489.149792 60.48 
" clip-path="url(#pcf28075978)" style="fill: none; stroke: #cccccc; stroke-width: 0.8; stroke-linecap: round"/>
     </g>
     <g id="line2d_24"/>
     <g id="text_12">
      <!-- 23 -->
      <g style="fill: #262626" transform="translate(483.588855 459.217813) scale(0.1 -0.1)">
       <defs>
        <path id="ArialMT-33" d="M 269 1209 
L 831 1284 
Q 928 806 1161 595 
Q 1394 384 1728 384 
Q 2125 384 2398 659 
Q 2672 934 2672 1341 
Q 2672 1728 2419 1979 
Q 2166 2231 1775 2231 
Q 1616 2231 1378 2169 
L 1441 2663 
Q 1497 2656 1531 2656 
Q 1891 2656 2178 2843 
Q 2466 3031 2466 3422 
Q 2466 3731 2256 3934 
Q 2047 4138 1716 4138 
Q 1388 4138 1169 3931 
Q 950 3725 888 3313 
L 325 3413 
Q 428 3978 793 4289 
Q 1159 4600 1703 4600 
Q 2078 4600 2393 4439 
Q 2709 4278 2876 4000 
Q 3044 3722 3044 3409 
Q 3044 3113 2884 2869 
Q 2725 2625 2413 2481 
Q 2819 2388 3044 2092 
Q 3269 1797 3269 1353 
Q 3269 753 2831 336 
Q 2394 -81 1725 -81 
Q 1122 -81 723 278 
Q 325 638 269 1209 
z
" transform="scale(0.015625)"/>
       </defs>
       <use xlink:href="#ArialMT-32"/>
       <use xlink:href="#ArialMT-33" x="55.615234"/>
      </g>
     </g>
    </g>
    <g id="xtick_13">
     <g id="line2d_25">
      <path d="M 520.049654 448.56 
L 520.049654 60.48 
" clip-path="url(#pcf28075978)" style="fill: none; stroke: #cccccc; stroke-width: 0.8; stroke-linecap: round"/>
     </g>
     <g id="line2d_26"/>
     <g id="text_13">
      <!-- 23 -->
      <g style="fill: #262626" transform="translate(514.488716 459.217813) scale(0.1 -0.1)">
       <use xlink:href="#ArialMT-32"/>
       <use xlink:href="#ArialMT-33" x="55.615234"/>
      </g>
     </g>
    </g>
    <g id="xtick_14">
     <g id="line2d_27">
      <path d="M 550.949515 448.56 
L 550.949515 60.48 
" clip-path="url(#pcf28075978)" style="fill: none; stroke: #cccccc; stroke-width: 0.8; stroke-linecap: round"/>
     </g>
     <g id="line2d_28"/>
     <g id="text_14">
      <!-- 23 -->
      <g style="fill: #262626" transform="translate(545.388578 459.217813) scale(0.1 -0.1)">
       <use xlink:href="#ArialMT-32"/>
       <use xlink:href="#ArialMT-33" x="55.615234"/>
      </g>
     </g>
    </g>
    <g id="xtick_15">
     <g id="line2d_29">
      <path d="M 581.849377 448.56 
L 581.849377 60.48 
" clip-path="url(#pcf28075978)" style="fill: none; stroke: #cccccc; stroke-width: 0.8; stroke-linecap: round"/>
     </g>
     <g id="line2d_30"/>
     <g id="text_15">
      <!-- 24 -->
      <g style="fill: #262626" transform="translate(576.28844 459.217813) scale(0.1 -0.1)">
       <defs>
        <path id="ArialMT-34" d="M 2069 0 
L 2069 1097 
L 81 1097 
L 81 1613 
L 2172 4581 
L 2631 4581 
L 2631 1613 
L 3250 1613 
L 3250 1097 
L 2631 1097 
L 2631 0 
L 2069 0 
z
M 2069 1613 
L 2069 3678 
L 634 1613 
L 2069 1613 
z
" transform="scale(0.015625)"/>
       </defs>
       <use xlink:href="#ArialMT-32"/>
       <use xlink:href="#ArialMT-34" x="55.615234"/>
      </g>
     </g>
    </g>
    <g id="xtick_16">
     <g id="line2d_31">
      <path d="M 612.749239 448.56 
L 612.749239 60.48 
" clip-path="url(#pcf28075978)" style="fill: none; stroke: #cccccc; stroke-width: 0.8; stroke-linecap: round"/>
     </g>
     <g id="line2d_32"/>
     <g id="text_16">
      <!-- 25 -->
      <g style="fill: #262626" transform="translate(607.188301 459.217813) scale(0.1 -0.1)">
       <use xlink:href="#ArialMT-32"/>
       <use xlink:href="#ArialMT-35" x="55.615234"/>
      </g>
     </g>
    </g>
    <g id="xtick_17">
     <g id="line2d_33">
      <path d="M 643.6491 448.56 
L 643.6491 60.48 
" clip-path="url(#pcf28075978)" style="fill: none; stroke: #cccccc; stroke-width: 0.8; stroke-linecap: round"/>
     </g>
     <g id="line2d_34"/>
     <g id="text_17">
      <!-- 26 -->
      <g style="fill: #262626" transform="translate(638.088163 459.217813) scale(0.1 -0.1)">
       <use xlink:href="#ArialMT-32"/>
       <use xlink:href="#ArialMT-36" x="55.615234"/>
      </g>
     </g>
    </g>
    <g id="xtick_18">
     <g id="line2d_35">
      <path d="M 674.548962 448.56 
L 674.548962 60.48 
" clip-path="url(#pcf28075978)" style="fill: none; stroke: #cccccc; stroke-width: 0.8; stroke-linecap: round"/>
     </g>
     <g id="line2d_36"/>
     <g id="text_18">
      <!-- 26 -->
      <g style="fill: #262626" transform="translate(668.988024 459.217813) scale(0.1 -0.1)">
       <use xlink:href="#ArialMT-32"/>
       <use xlink:href="#ArialMT-36" x="55.615234"/>
      </g>
     </g>
    </g>
    <g id="xtick_19">
     <g id="line2d_37">
      <path d="M 705.448823 448.56 
L 705.448823 60.48 
" clip-path="url(#pcf28075978)" style="fill: none; stroke: #cccccc; stroke-width: 0.8; stroke-linecap: round"/>
     </g>
     <g id="line2d_38"/>
     <g id="text_19">
      <!-- 28 -->
      <g style="fill: #262626" transform="translate(699.887886 459.217813) scale(0.1 -0.1)">
       <use xlink:href="#ArialMT-32"/>
       <use xlink:href="#ArialMT-38" x="55.615234"/>
      </g>
     </g>
    </g>
    <g id="xtick_20">
     <g id="line2d_39">
      <path d="M 736.348685 448.56 
L 736.348685 60.48 
" clip-path="url(#pcf28075978)" style="fill: none; stroke: #cccccc; stroke-width: 0.8; stroke-linecap: round"/>
     </g>
     <g id="line2d_40"/>
     <g id="text_20">
      <!-- 29 -->
      <g style="fill: #262626" transform="translate(730.787747 459.217813) scale(0.1 -0.1)">
       <defs>
        <path id="ArialMT-39" d="M 350 1059 
L 891 1109 
Q 959 728 1153 556 
Q 1347 384 1650 384 
Q 1909 384 2104 503 
Q 2300 622 2425 820 
Q 2550 1019 2634 1356 
Q 2719 1694 2719 2044 
Q 2719 2081 2716 2156 
Q 2547 1888 2255 1720 
Q 1963 1553 1622 1553 
Q 1053 1553 659 1965 
Q 266 2378 266 3053 
Q 266 3750 677 4175 
Q 1088 4600 1706 4600 
Q 2153 4600 2523 4359 
Q 2894 4119 3086 3673 
Q 3278 3228 3278 2384 
Q 3278 1506 3087 986 
Q 2897 466 2520 194 
Q 2144 -78 1638 -78 
Q 1100 -78 759 220 
Q 419 519 350 1059 
z
M 2653 3081 
Q 2653 3566 2395 3850 
Q 2138 4134 1775 4134 
Q 1400 4134 1122 3828 
Q 844 3522 844 3034 
Q 844 2597 1108 2323 
Q 1372 2050 1759 2050 
Q 2150 2050 2401 2323 
Q 2653 2597 2653 3081 
z
" transform="scale(0.015625)"/>
       </defs>
       <use xlink:href="#ArialMT-32"/>
       <use xlink:href="#ArialMT-39" x="55.615234"/>
      </g>
     </g>
    </g>
    <g id="text_21">
     <!-- Número de Serviços -->
     <g style="fill: #262626" transform="translate(352.214063 479.705312) scale(0.2 -0.2)">
      <defs>
       <path id="ArialMT-4e" d="M 488 0 
L 488 4581 
L 1109 4581 
L 3516 984 
L 3516 4581 
L 4097 4581 
L 4097 0 
L 3475 0 
L 1069 3600 
L 1069 0 
L 488 0 
z
" transform="scale(0.015625)"/>
       <path id="ArialMT-fa" d="M 2597 0 
L 2597 488 
Q 2209 -75 1544 -75 
Q 1250 -75 995 37 
Q 741 150 617 320 
Q 494 491 444 738 
Q 409 903 409 1263 
L 409 3319 
L 972 3319 
L 972 1478 
Q 972 1038 1006 884 
Q 1059 663 1231 536 
Q 1403 409 1656 409 
Q 1909 409 2131 539 
Q 2353 669 2445 892 
Q 2538 1116 2538 1541 
L 2538 3319 
L 3100 3319 
L 3100 0 
L 2597 0 
z
M 1416 3731 
L 1831 4606 
L 2569 4606 
L 1881 3731 
L 1416 3731 
z
" transform="scale(0.015625)"/>
       <path id="ArialMT-6d" d="M 422 0 
L 422 3319 
L 925 3319 
L 925 2853 
Q 1081 3097 1340 3245 
Q 1600 3394 1931 3394 
Q 2300 3394 2536 3241 
Q 2772 3088 2869 2813 
Q 3263 3394 3894 3394 
Q 4388 3394 4653 3120 
Q 4919 2847 4919 2278 
L 4919 0 
L 4359 0 
L 4359 2091 
Q 4359 2428 4304 2576 
Q 4250 2725 4106 2815 
Q 3963 2906 3769 2906 
Q 3419 2906 3187 2673 
Q 2956 2441 2956 1928 
L 2956 0 
L 2394 0 
L 2394 2156 
Q 2394 2531 2256 2718 
Q 2119 2906 1806 2906 
Q 1569 2906 1367 2781 
Q 1166 2656 1075 2415 
Q 984 2175 984 1722 
L 984 0 
L 422 0 
z
" transform="scale(0.015625)"/>
       <path id="ArialMT-65" d="M 2694 1069 
L 3275 997 
Q 3138 488 2766 206 
Q 2394 -75 1816 -75 
Q 1088 -75 661 373 
Q 234 822 234 1631 
Q 234 2469 665 2931 
Q 1097 3394 1784 3394 
Q 2450 3394 2872 2941 
Q 3294 2488 3294 1666 
Q 3294 1616 3291 1516 
L 816 1516 
Q 847 969 1125 678 
Q 1403 388 1819 388 
Q 2128 388 2347 550 
Q 2566 713 2694 1069 
z
M 847 1978 
L 2700 1978 
Q 2663 2397 2488 2606 
Q 2219 2931 1791 2931 
Q 1403 2931 1139 2672 
Q 875 2413 847 1978 
z
" transform="scale(0.015625)"/>
       <path id="ArialMT-72" d="M 416 0 
L 416 3319 
L 922 3319 
L 922 2816 
Q 1116 3169 1280 3281 
Q 1444 3394 1641 3394 
Q 1925 3394 2219 3213 
L 2025 2691 
Q 1819 2813 1613 2813 
Q 1428 2813 1281 2702 
Q 1134 2591 1072 2394 
Q 978 2094 978 1738 
L 978 0 
L 416 0 
z
" transform="scale(0.015625)"/>
       <path id="ArialMT-6f" d="M 213 1659 
Q 213 2581 725 3025 
Q 1153 3394 1769 3394 
Q 2453 3394 2887 2945 
Q 3322 2497 3322 1706 
Q 3322 1066 3130 698 
Q 2938 331 2570 128 
Q 2203 -75 1769 -75 
Q 1072 -75 642 372 
Q 213 819 213 1659 
z
M 791 1659 
Q 791 1022 1069 705 
Q 1347 388 1769 388 
Q 2188 388 2466 706 
Q 2744 1025 2744 1678 
Q 2744 2294 2464 2611 
Q 2184 2928 1769 2928 
Q 1347 2928 1069 2612 
Q 791 2297 791 1659 
z
" transform="scale(0.015625)"/>
       <path id="ArialMT-20" transform="scale(0.015625)"/>
       <path id="ArialMT-64" d="M 2575 0 
L 2575 419 
Q 2259 -75 1647 -75 
Q 1250 -75 917 144 
Q 584 363 401 755 
Q 219 1147 219 1656 
Q 219 2153 384 2558 
Q 550 2963 881 3178 
Q 1213 3394 1622 3394 
Q 1922 3394 2156 3267 
Q 2391 3141 2538 2938 
L 2538 4581 
L 3097 4581 
L 3097 0 
L 2575 0 
z
M 797 1656 
Q 797 1019 1065 703 
Q 1334 388 1700 388 
Q 2069 388 2326 689 
Q 2584 991 2584 1609 
Q 2584 2291 2321 2609 
Q 2059 2928 1675 2928 
Q 1300 2928 1048 2622 
Q 797 2316 797 1656 
z
" transform="scale(0.015625)"/>
       <path id="ArialMT-53" d="M 288 1472 
L 859 1522 
Q 900 1178 1048 958 
Q 1197 738 1509 602 
Q 1822 466 2213 466 
Q 2559 466 2825 569 
Q 3091 672 3220 851 
Q 3350 1031 3350 1244 
Q 3350 1459 3225 1620 
Q 3100 1781 2813 1891 
Q 2628 1963 1997 2114 
Q 1366 2266 1113 2400 
Q 784 2572 623 2826 
Q 463 3081 463 3397 
Q 463 3744 659 4045 
Q 856 4347 1234 4503 
Q 1613 4659 2075 4659 
Q 2584 4659 2973 4495 
Q 3363 4331 3572 4012 
Q 3781 3694 3797 3291 
L 3216 3247 
Q 3169 3681 2898 3903 
Q 2628 4125 2100 4125 
Q 1550 4125 1298 3923 
Q 1047 3722 1047 3438 
Q 1047 3191 1225 3031 
Q 1400 2872 2139 2705 
Q 2878 2538 3153 2413 
Q 3553 2228 3743 1945 
Q 3934 1663 3934 1294 
Q 3934 928 3725 604 
Q 3516 281 3123 101 
Q 2731 -78 2241 -78 
Q 1619 -78 1198 103 
Q 778 284 539 648 
Q 300 1013 288 1472 
z
" transform="scale(0.015625)"/>
       <path id="ArialMT-76" d="M 1344 0 
L 81 3319 
L 675 3319 
L 1388 1331 
Q 1503 1009 1600 663 
Q 1675 925 1809 1294 
L 2547 3319 
L 3125 3319 
L 1869 0 
L 1344 0 
z
" transform="scale(0.015625)"/>
       <path id="ArialMT-69" d="M 425 3934 
L 425 4581 
L 988 4581 
L 988 3934 
L 425 3934 
z
M 425 0 
L 425 3319 
L 988 3319 
L 988 0 
L 425 0 
z
" transform="scale(0.015625)"/>
       <path id="ArialMT-e7" d="M 2588 1216 
L 3141 1144 
Q 3050 572 2676 248 
Q 2303 -75 1759 -75 
Q 1078 -75 664 370 
Q 250 816 250 1647 
Q 250 2184 428 2587 
Q 606 2991 970 3192 
Q 1334 3394 1763 3394 
Q 2303 3394 2647 3120 
Q 2991 2847 3088 2344 
L 2541 2259 
Q 2463 2594 2264 2762 
Q 2066 2931 1784 2931 
Q 1359 2931 1093 2626 
Q 828 2322 828 1663 
Q 828 994 1084 691 
Q 1341 388 1753 388 
Q 2084 388 2306 591 
Q 2528 794 2588 1216 
z
M 1284 -418 
L 1447 135 
L 1866 135 
L 1763 -200 
Q 2028 -231 2162 -363 
Q 2297 -496 2297 -659 
Q 2297 -893 2072 -1073 
Q 1847 -1253 1394 -1253 
Q 1138 -1253 944 -1215 
L 978 -850 
Q 1178 -862 1272 -862 
Q 1566 -862 1684 -781 
Q 1775 -718 1775 -628 
Q 1775 -571 1739 -527 
Q 1703 -484 1606 -452 
Q 1509 -421 1284 -418 
z
" transform="scale(0.015625)"/>
       <path id="ArialMT-73" d="M 197 991 
L 753 1078 
Q 800 744 1014 566 
Q 1228 388 1613 388 
Q 2000 388 2187 545 
Q 2375 703 2375 916 
Q 2375 1106 2209 1216 
Q 2094 1291 1634 1406 
Q 1016 1563 777 1677 
Q 538 1791 414 1992 
Q 291 2194 291 2438 
Q 291 2659 392 2848 
Q 494 3038 669 3163 
Q 800 3259 1026 3326 
Q 1253 3394 1513 3394 
Q 1903 3394 2198 3281 
Q 2494 3169 2634 2976 
Q 2775 2784 2828 2463 
L 2278 2388 
Q 2241 2644 2061 2787 
Q 1881 2931 1553 2931 
Q 1166 2931 1000 2803 
Q 834 2675 834 2503 
Q 834 2394 903 2306 
Q 972 2216 1119 2156 
Q 1203 2125 1616 2013 
Q 2213 1853 2448 1751 
Q 2684 1650 2818 1456 
Q 2953 1263 2953 975 
Q 2953 694 2789 445 
Q 2625 197 2315 61 
Q 2006 -75 1616 -75 
Q 969 -75 630 194 
Q 291 463 197 991 
z
" transform="scale(0.015625)"/>
      </defs>
      <use xlink:href="#ArialMT-4e"/>
      <use xlink:href="#ArialMT-fa" x="72.216797"/>
      <use xlink:href="#ArialMT-6d" x="127.832031"/>
      <use xlink:href="#ArialMT-65" x="211.132812"/>
      <use xlink:href="#ArialMT-72" x="266.748047"/>
      <use xlink:href="#ArialMT-6f" x="300.048828"/>
      <use xlink:href="#ArialMT-20" x="355.664062"/>
      <use xlink:href="#ArialMT-64" x="383.447266"/>
      <use xlink:href="#ArialMT-65" x="439.0625"/>
      <use xlink:href="#ArialMT-20" x="494.677734"/>
      <use xlink:href="#ArialMT-53" x="522.460938"/>
      <use xlink:href="#ArialMT-65" x="589.160156"/>
      <use xlink:href="#ArialMT-72" x="644.775391"/>
      <use xlink:href="#ArialMT-76" x="678.076172"/>
      <use xlink:href="#ArialMT-69" x="728.076172"/>
      <use xlink:href="#ArialMT-e7" x="750.292969"/>
      <use xlink:href="#ArialMT-6f" x="800.292969"/>
      <use xlink:href="#ArialMT-73" x="855.908203"/>
     </g>
    </g>
   </g>
   <g id="matplotlib.axis_2">
    <g id="ytick_1">
     <g id="line2d_41">
      <path d="M 108 384.277025 
L 777.6 384.277025 
" clip-path="url(#pcf28075978)" style="fill: none; stroke: #cccccc; stroke-width: 0.8; stroke-linecap: round"/>
     </g>
     <g id="line2d_42"/>
     <g id="text_22">
      <!-- $\mathdefault{10^{-2}}$ -->
      <g style="fill: #262626" transform="translate(84.7 389.433275) scale(0.1 -0.1)">
       <defs>
        <path id="ArialMT-30" d="M 266 2259 
Q 266 3072 433 3567 
Q 600 4063 929 4331 
Q 1259 4600 1759 4600 
Q 2128 4600 2406 4451 
Q 2684 4303 2865 4023 
Q 3047 3744 3150 3342 
Q 3253 2941 3253 2259 
Q 3253 1453 3087 958 
Q 2922 463 2592 192 
Q 2263 -78 1759 -78 
Q 1097 -78 719 397 
Q 266 969 266 2259 
z
M 844 2259 
Q 844 1131 1108 757 
Q 1372 384 1759 384 
Q 2147 384 2411 759 
Q 2675 1134 2675 2259 
Q 2675 3391 2411 3762 
Q 2147 4134 1753 4134 
Q 1366 4134 1134 3806 
Q 844 3388 844 2259 
z
" transform="scale(0.015625)"/>
        <path id="ArialMT-2212" d="M 3381 1997 
L 356 1997 
L 356 2522 
L 3381 2522 
L 3381 1997 
z
" transform="scale(0.015625)"/>
       </defs>
       <use xlink:href="#ArialMT-31" transform="translate(0 0.99375)"/>
       <use xlink:href="#ArialMT-30" transform="translate(55.615234 0.99375)"/>
       <use xlink:href="#ArialMT-2212" transform="translate(112.972813 70.6875) scale(0.7)"/>
       <use xlink:href="#ArialMT-32" transform="translate(153.851719 70.6875) scale(0.7)"/>
      </g>
     </g>
    </g>
    <g id="ytick_2">
     <g id="line2d_43">
      <path d="M 108 318.971671 
L 777.6 318.971671 
" clip-path="url(#pcf28075978)" style="fill: none; stroke: #cccccc; stroke-width: 0.8; stroke-linecap: round"/>
     </g>
     <g id="line2d_44"/>
     <g id="text_23">
      <!-- $\mathdefault{10^{-1}}$ -->
      <g style="fill: #262626" transform="translate(84.7 324.127921) scale(0.1 -0.1)">
       <use xlink:href="#ArialMT-31" transform="translate(0 0.99375)"/>
       <use xlink:href="#ArialMT-30" transform="translate(55.615234 0.99375)"/>
       <use xlink:href="#ArialMT-2212" transform="translate(112.972813 70.6875) scale(0.7)"/>
       <use xlink:href="#ArialMT-31" transform="translate(153.851719 70.6875) scale(0.7)"/>
      </g>
     </g>
    </g>
    <g id="ytick_3">
     <g id="line2d_45">
      <path d="M 108 253.666318 
L 777.6 253.666318 
" clip-path="url(#pcf28075978)" style="fill: none; stroke: #cccccc; stroke-width: 0.8; stroke-linecap: round"/>
     </g>
     <g id="line2d_46"/>
     <g id="text_24">
      <!-- $\mathdefault{10^{0}}$ -->
      <g style="fill: #262626" transform="translate(88.8 258.822568) scale(0.1 -0.1)">
       <use xlink:href="#ArialMT-31" transform="translate(0 0.99375)"/>
       <use xlink:href="#ArialMT-30" transform="translate(55.615234 0.99375)"/>
       <use xlink:href="#ArialMT-30" transform="translate(112.972813 70.6875) scale(0.7)"/>
      </g>
     </g>
    </g>
    <g id="ytick_4">
     <g id="line2d_47">
      <path d="M 108 188.360964 
L 777.6 188.360964 
" clip-path="url(#pcf28075978)" style="fill: none; stroke: #cccccc; stroke-width: 0.8; stroke-linecap: round"/>
     </g>
     <g id="line2d_48"/>
     <g id="text_25">
      <!-- $\mathdefault{10^{1}}$ -->
      <g style="fill: #262626" transform="translate(88.8 193.517214) scale(0.1 -0.1)">
       <use xlink:href="#ArialMT-31" transform="translate(0 0.99375)"/>
       <use xlink:href="#ArialMT-30" transform="translate(55.615234 0.99375)"/>
       <use xlink:href="#ArialMT-31" transform="translate(112.972813 70.6875) scale(0.7)"/>
      </g>
     </g>
    </g>
    <g id="ytick_5">
     <g id="line2d_49">
      <path d="M 108 123.055611 
L 777.6 123.055611 
" clip-path="url(#pcf28075978)" style="fill: none; stroke: #cccccc; stroke-width: 0.8; stroke-linecap: round"/>
     </g>
     <g id="line2d_50"/>
     <g id="text_26">
      <!-- $\mathdefault{10^{2}}$ -->
      <g style="fill: #262626" transform="translate(88.8 128.211861) scale(0.1 -0.1)">
       <use xlink:href="#ArialMT-31" transform="translate(0 0.99375)"/>
       <use xlink:href="#ArialMT-30" transform="translate(55.615234 0.99375)"/>
       <use xlink:href="#ArialMT-32" transform="translate(112.972813 70.6875) scale(0.7)"/>
      </g>
     </g>
    </g>
    <g id="ytick_6">
     <g id="line2d_51"/>
    </g>
    <g id="ytick_7">
     <g id="line2d_52"/>
    </g>
    <g id="ytick_8">
     <g id="line2d_53"/>
    </g>
    <g id="ytick_9">
     <g id="line2d_54"/>
    </g>
    <g id="ytick_10">
     <g id="line2d_55"/>
    </g>
    <g id="ytick_11">
     <g id="line2d_56"/>
    </g>
    <g id="ytick_12">
     <g id="line2d_57"/>
    </g>
    <g id="ytick_13">
     <g id="line2d_58"/>
    </g>
    <g id="ytick_14">
     <g id="line2d_59"/>
    </g>
    <g id="ytick_15">
     <g id="line2d_60"/>
    </g>
    <g id="ytick_16">
     <g id="line2d_61"/>
    </g>
    <g id="ytick_17">
     <g id="line2d_62"/>
    </g>
    <g id="ytick_18">
     <g id="line2d_63"/>
    </g>
    <g id="ytick_19">
     <g id="line2d_64"/>
    </g>
    <g id="ytick_20">
     <g id="line2d_65"/>
    </g>
    <g id="ytick_21">
     <g id="line2d_66"/>
    </g>
    <g id="ytick_22">
     <g id="line2d_67"/>
    </g>
    <g id="ytick_23">
     <g id="line2d_68"/>
    </g>
    <g id="ytick_24">
     <g id="line2d_69"/>
    </g>
    <g id="ytick_25">
     <g id="line2d_70"/>
    </g>
    <g id="ytick_26">
     <g id="line2d_71"/>
    </g>
    <g id="ytick_27">
     <g id="line2d_72"/>
    </g>
    <g id="ytick_28">
     <g id="line2d_73"/>
    </g>
    <g id="ytick_29">
     <g id="line2d_74"/>
    </g>
    <g id="ytick_30">
     <g id="line2d_75"/>
    </g>
    <g id="ytick_31">
     <g id="line2d_76"/>
    </g>
    <g id="ytick_32">
     <g id="line2d_77"/>
    </g>
    <g id="ytick_33">
     <g id="line2d_78"/>
    </g>
    <g id="ytick_34">
     <g id="line2d_79"/>
    </g>
    <g id="ytick_35">
     <g id="line2d_80"/>
    </g>
    <g id="ytick_36">
     <g id="line2d_81"/>
    </g>
    <g id="ytick_37">
     <g id="line2d_82"/>
    </g>
    <g id="ytick_38">
     <g id="line2d_83"/>
    </g>
    <g id="ytick_39">
     <g id="line2d_84"/>
    </g>
    <g id="ytick_40">
     <g id="line2d_85"/>
    </g>
    <g id="ytick_41">
     <g id="line2d_86"/>
    </g>
    <g id="ytick_42">
     <g id="line2d_87"/>
    </g>
    <g id="ytick_43">
     <g id="line2d_88"/>
    </g>
    <g id="ytick_44">
     <g id="line2d_89"/>
    </g>
    <g id="ytick_45">
     <g id="line2d_90"/>
    </g>
    <g id="ytick_46">
     <g id="line2d_91"/>
    </g>
    <g id="ytick_47">
     <g id="line2d_92"/>
    </g>
    <g id="ytick_48">
     <g id="line2d_93"/>
    </g>
    <g id="ytick_49">
     <g id="line2d_94"/>
    </g>
    <g id="ytick_50">
     <g id="line2d_95"/>
    </g>
    <g id="ytick_51">
     <g id="line2d_96"/>
    </g>
    <g id="ytick_52">
     <g id="line2d_97"/>
    </g>
    <g id="ytick_53">
     <g id="line2d_98"/>
    </g>
    <g id="text_27">
     <!-- Tempo (seg) -->
     <g style="fill: #262626" transform="translate(76.490625 310.087188) rotate(-90) scale(0.2 -0.2)">
      <defs>
       <path id="ArialMT-54" d="M 1659 0 
L 1659 4041 
L 150 4041 
L 150 4581 
L 3781 4581 
L 3781 4041 
L 2266 4041 
L 2266 0 
L 1659 0 
z
" transform="scale(0.015625)"/>
       <path id="ArialMT-70" d="M 422 -1272 
L 422 3319 
L 934 3319 
L 934 2888 
Q 1116 3141 1344 3267 
Q 1572 3394 1897 3394 
Q 2322 3394 2647 3175 
Q 2972 2956 3137 2557 
Q 3303 2159 3303 1684 
Q 3303 1175 3120 767 
Q 2938 359 2589 142 
Q 2241 -75 1856 -75 
Q 1575 -75 1351 44 
Q 1128 163 984 344 
L 984 -1272 
L 422 -1272 
z
M 931 1641 
Q 931 1000 1190 694 
Q 1450 388 1819 388 
Q 2194 388 2461 705 
Q 2728 1022 2728 1688 
Q 2728 2322 2467 2637 
Q 2206 2953 1844 2953 
Q 1484 2953 1207 2617 
Q 931 2281 931 1641 
z
" transform="scale(0.015625)"/>
       <path id="ArialMT-28" d="M 1497 -1347 
Q 1031 -759 709 28 
Q 388 816 388 1659 
Q 388 2403 628 3084 
Q 909 3875 1497 4659 
L 1900 4659 
Q 1522 4009 1400 3731 
Q 1209 3300 1100 2831 
Q 966 2247 966 1656 
Q 966 153 1900 -1347 
L 1497 -1347 
z
" transform="scale(0.015625)"/>
       <path id="ArialMT-67" d="M 319 -275 
L 866 -356 
Q 900 -609 1056 -725 
Q 1266 -881 1628 -881 
Q 2019 -881 2231 -725 
Q 2444 -569 2519 -288 
Q 2563 -116 2559 434 
Q 2191 0 1641 0 
Q 956 0 581 494 
Q 206 988 206 1678 
Q 206 2153 378 2554 
Q 550 2956 876 3175 
Q 1203 3394 1644 3394 
Q 2231 3394 2613 2919 
L 2613 3319 
L 3131 3319 
L 3131 450 
Q 3131 -325 2973 -648 
Q 2816 -972 2473 -1159 
Q 2131 -1347 1631 -1347 
Q 1038 -1347 672 -1080 
Q 306 -813 319 -275 
z
M 784 1719 
Q 784 1066 1043 766 
Q 1303 466 1694 466 
Q 2081 466 2343 764 
Q 2606 1063 2606 1700 
Q 2606 2309 2336 2618 
Q 2066 2928 1684 2928 
Q 1309 2928 1046 2623 
Q 784 2319 784 1719 
z
" transform="scale(0.015625)"/>
       <path id="ArialMT-29" d="M 791 -1347 
L 388 -1347 
Q 1322 153 1322 1656 
Q 1322 2244 1188 2822 
Q 1081 3291 891 3722 
Q 769 4003 388 4659 
L 791 4659 
Q 1378 3875 1659 3084 
Q 1900 2403 1900 1659 
Q 1900 816 1576 28 
Q 1253 -759 791 -1347 
z
" transform="scale(0.015625)"/>
      </defs>
      <use xlink:href="#ArialMT-54"/>
      <use xlink:href="#ArialMT-65" x="49.958984"/>
      <use xlink:href="#ArialMT-6d" x="105.574219"/>
      <use xlink:href="#ArialMT-70" x="188.875"/>
      <use xlink:href="#ArialMT-6f" x="244.490234"/>
      <use xlink:href="#ArialMT-20" x="300.105469"/>
      <use xlink:href="#ArialMT-28" x="327.888672"/>
      <use xlink:href="#ArialMT-73" x="361.189453"/>
      <use xlink:href="#ArialMT-65" x="411.189453"/>
      <use xlink:href="#ArialMT-67" x="466.804688"/>
      <use xlink:href="#ArialMT-29" x="522.419922"/>
     </g>
    </g>
   </g>
   <g id="patch_3">
    <path d="M 138.436364 65559.019763 
L 149.251315 65559.019763 
L 149.251315 430.92 
L 138.436364 430.92 
z
" clip-path="url(#pcf28075978)" style="fill: #dc143c"/>
   </g>
   <g id="patch_4">
    <path d="M 169.336225 65559.019763 
L 180.151177 65559.019763 
L 180.151177 423.936935 
L 169.336225 423.936935 
z
" clip-path="url(#pcf28075978)" style="fill: #dc143c"/>
   </g>
   <g id="patch_5">
    <path d="M 200.236087 65559.019763 
L 211.051038 65559.019763 
L 211.051038 421.867978 
L 200.236087 421.867978 
z
" clip-path="url(#pcf28075978)" style="fill: #dc143c"/>
   </g>
   <g id="patch_6">
    <path d="M 231.135948 65559.019763 
L 241.9509 65559.019763 
L 241.9509 407.027023 
L 231.135948 407.027023 
z
" clip-path="url(#pcf28075978)" style="fill: #dc143c"/>
   </g>
   <g id="patch_7">
    <path d="M 262.03581 65559.019763 
L 272.850761 65559.019763 
L 272.850761 399.517339 
L 262.03581 399.517339 
z
" clip-path="url(#pcf28075978)" style="fill: #dc143c"/>
   </g>
   <g id="patch_8">
    <path d="M 292.935671 65559.019763 
L 303.750623 65559.019763 
L 303.750623 398.152691 
L 292.935671 398.152691 
z
" clip-path="url(#pcf28075978)" style="fill: #dc143c"/>
   </g>
   <g id="patch_9">
    <path d="M 323.835533 65559.019763 
L 334.650485 65559.019763 
L 334.650485 395.904842 
L 323.835533 395.904842 
z
" clip-path="url(#pcf28075978)" style="fill: #dc143c"/>
   </g>
   <g id="patch_10">
    <path d="M 354.735395 65559.019763 
L 365.550346 65559.019763 
L 365.550346 394.838018 
L 354.735395 394.838018 
z
" clip-path="url(#pcf28075978)" style="fill: #dc143c"/>
   </g>
   <g id="patch_11">
    <path d="M 385.635256 65559.019763 
L 396.450208 65559.019763 
L 396.450208 392.889039 
L 385.635256 392.889039 
z
" clip-path="url(#pcf28075978)" style="fill: #dc143c"/>
   </g>
   <g id="patch_12">
    <path d="M 416.535118 65559.019763 
L 427.350069 65559.019763 
L 427.350069 385.258774 
L 416.535118 385.258774 
z
" clip-path="url(#pcf28075978)" style="fill: #dc143c"/>
   </g>
   <g id="patch_13">
    <path d="M 447.434979 65559.019763 
L 458.249931 65559.019763 
L 458.249931 384.433673 
L 447.434979 384.433673 
z
" clip-path="url(#pcf28075978)" style="fill: #dc143c"/>
   </g>
   <g id="patch_14">
    <path d="M 478.334841 65559.019763 
L 489.149792 65559.019763 
L 489.149792 382.245255 
L 478.334841 382.245255 
z
" clip-path="url(#pcf28075978)" style="fill: #dc143c"/>
   </g>
   <g id="patch_15">
    <path d="M 509.234702 65559.019763 
L 520.049654 65559.019763 
L 520.049654 381.916704 
L 509.234702 381.916704 
z
" clip-path="url(#pcf28075978)" style="fill: #dc143c"/>
   </g>
   <g id="patch_16">
    <path d="M 540.134564 65559.019763 
L 550.949515 65559.019763 
L 550.949515 383.148244 
L 540.134564 383.148244 
z
" clip-path="url(#pcf28075978)" style="fill: #dc143c"/>
   </g>
   <g id="patch_17">
    <path d="M 571.034425 65559.019763 
L 581.849377 65559.019763 
L 581.849377 380.488603 
L 571.034425 380.488603 
z
" clip-path="url(#pcf28075978)" style="fill: #dc143c"/>
   </g>
   <g id="patch_18">
    <path d="M 601.934287 65559.019763 
L 612.749239 65559.019763 
L 612.749239 378.849515 
L 601.934287 378.849515 
z
" clip-path="url(#pcf28075978)" style="fill: #dc143c"/>
   </g>
   <g id="patch_19">
    <path d="M 632.834149 65559.019763 
L 643.6491 65559.019763 
L 643.6491 377.160764 
L 632.834149 377.160764 
z
" clip-path="url(#pcf28075978)" style="fill: #dc143c"/>
   </g>
   <g id="patch_20">
    <path d="M 663.73401 65559.019763 
L 674.548962 65559.019763 
L 674.548962 376.885874 
L 663.73401 376.885874 
z
" clip-path="url(#pcf28075978)" style="fill: #dc143c"/>
   </g>
   <g id="patch_21">
    <path d="M 694.633872 65559.019763 
L 705.448823 65559.019763 
L 705.448823 374.411465 
L 694.633872 374.411465 
z
" clip-path="url(#pcf28075978)" style="fill: #dc143c"/>
   </g>
   <g id="patch_22">
    <path d="M 725.533733 65559.019763 
L 736.348685 65559.019763 
L 736.348685 370.989134 
L 725.533733 370.989134 
z
" clip-path="url(#pcf28075978)" style="fill: #dc143c"/>
   </g>
   <g id="patch_23">
    <path d="M 149.251315 65559.019763 
L 160.066267 65559.019763 
L 160.066267 357.233769 
L 149.251315 357.233769 
z
" clip-path="url(#pcf28075978)" style="fill: #4169e1"/>
   </g>
   <g id="patch_24">
    <path d="M 180.151177 65559.019763 
L 190.966128 65559.019763 
L 190.966128 343.964527 
L 180.151177 343.964527 
z
" clip-path="url(#pcf28075978)" style="fill: #4169e1"/>
   </g>
   <g id="patch_25">
    <path d="M 211.051038 65559.019763 
L 221.86599 65559.019763 
L 221.86599 351.203988 
L 211.051038 351.203988 
z
" clip-path="url(#pcf28075978)" style="fill: #4169e1"/>
   </g>
   <g id="patch_26">
    <path d="M 241.9509 65559.019763 
L 252.765851 65559.019763 
L 252.765851 336.793933 
L 241.9509 336.793933 
z
" clip-path="url(#pcf28075978)" style="fill: #4169e1"/>
   </g>
   <g id="patch_27">
    <path d="M 272.850761 65559.019763 
L 283.665713 65559.019763 
L 283.665713 270.363914 
L 272.850761 270.363914 
z
" clip-path="url(#pcf28075978)" style="fill: #4169e1"/>
   </g>
   <g id="patch_28">
    <path d="M 303.750623 65559.019763 
L 314.565575 65559.019763 
L 314.565575 266.308736 
L 303.750623 266.308736 
z
" clip-path="url(#pcf28075978)" style="fill: #4169e1"/>
   </g>
   <g id="patch_29">
    <path d="M 334.650485 65559.019763 
L 345.465436 65559.019763 
L 345.465436 237.379822 
L 334.650485 237.379822 
z
" clip-path="url(#pcf28075978)" style="fill: #4169e1"/>
   </g>
   <g id="patch_30">
    <path d="M 365.550346 65559.019763 
L 376.365298 65559.019763 
L 376.365298 183.49055 
L 365.550346 183.49055 
z
" clip-path="url(#pcf28075978)" style="fill: #4169e1"/>
   </g>
   <g id="patch_31">
    <path d="M 396.450208 65559.019763 
L 407.265159 65559.019763 
L 407.265159 239.80093 
L 396.450208 239.80093 
z
" clip-path="url(#pcf28075978)" style="fill: #4169e1"/>
   </g>
   <g id="patch_32">
    <path d="M 427.350069 65559.019763 
L 438.165021 65559.019763 
L 438.165021 166.58868 
L 427.350069 166.58868 
z
" clip-path="url(#pcf28075978)" style="fill: #4169e1"/>
   </g>
   <g id="patch_33">
    <path d="M 458.249931 65559.019763 
L 469.064882 65559.019763 
L 469.064882 245.782203 
L 458.249931 245.782203 
z
" clip-path="url(#pcf28075978)" style="fill: #4169e1"/>
   </g>
   <g id="patch_34">
    <path d="M 489.149792 65559.019763 
L 499.964744 65559.019763 
L 499.964744 208.724055 
L 489.149792 208.724055 
z
" clip-path="url(#pcf28075978)" style="fill: #4169e1"/>
   </g>
   <g id="patch_35">
    <path d="M 520.049654 65559.019763 
L 530.864605 65559.019763 
L 530.864605 207.790366 
L 520.049654 207.790366 
z
" clip-path="url(#pcf28075978)" style="fill: #4169e1"/>
   </g>
   <g id="patch_36">
    <path d="M 550.949515 65559.019763 
L 561.764467 65559.019763 
L 561.764467 107.930827 
L 550.949515 107.930827 
z
" clip-path="url(#pcf28075978)" style="fill: #4169e1"/>
   </g>
   <g id="patch_37">
    <path d="M 581.849377 65559.019763 
L 592.664329 65559.019763 
L 592.664329 228.010322 
L 581.849377 228.010322 
z
" clip-path="url(#pcf28075978)" style="fill: #4169e1"/>
   </g>
   <g id="patch_38">
    <path d="M 612.749239 65559.019763 
L 623.56419 65559.019763 
L 623.56419 160.468758 
L 612.749239 160.468758 
z
" clip-path="url(#pcf28075978)" style="fill: #4169e1"/>
   </g>
   <g id="patch_39">
    <path d="M 643.6491 65559.019763 
L 654.464052 65559.019763 
L 654.464052 179.105536 
L 643.6491 179.105536 
z
" clip-path="url(#pcf28075978)" style="fill: #4169e1"/>
   </g>
   <g id="patch_40">
    <path d="M 674.548962 65559.019763 
L 685.363913 65559.019763 
L 685.363913 157.391453 
L 674.548962 157.391453 
z
" clip-path="url(#pcf28075978)" style="fill: #4169e1"/>
   </g>
   <g id="patch_41">
    <path d="M 705.448823 65559.019763 
L 716.263775 65559.019763 
L 716.263775 78.12 
L 705.448823 78.12 
z
" clip-path="url(#pcf28075978)" style="fill: #4169e1"/>
   </g>
   <g id="patch_42">
    <path d="M 736.348685 65559.019763 
L 747.163636 65559.019763 
L 747.163636 200.851339 
L 736.348685 200.851339 
z
" clip-path="url(#pcf28075978)" style="fill: #4169e1"/>
   </g>
   <g id="patch_43">
    <path d="M 108 448.56 
L 108 60.48 
" style="fill: none; stroke: #cccccc; stroke-linejoin: miter; stroke-linecap: square"/>
   </g>
   <g id="patch_44">
    <path d="M 777.6 448.56 
L 777.6 60.48 
" style="fill: none; stroke: #cccccc; stroke-linejoin: miter; stroke-linecap: square"/>
   </g>
   <g id="patch_45">
    <path d="M 108 448.56 
L 777.6 448.56 
" style="fill: none; stroke: #cccccc; stroke-linejoin: miter; stroke-linecap: square"/>
   </g>
   <g id="patch_46">
    <path d="M 108 60.48 
L 777.6 60.48 
" style="fill: none; stroke: #cccccc; stroke-linejoin: miter; stroke-linecap: square"/>
   </g>
   <g id="text_28">
    <!-- Modelo M-1 -->
    <g style="fill: #262626" transform="translate(390.00625 54.48) scale(0.2 -0.2)">
     <defs>
      <path id="ArialMT-4d" d="M 475 0 
L 475 4581 
L 1388 4581 
L 2472 1338 
Q 2622 884 2691 659 
Q 2769 909 2934 1394 
L 4031 4581 
L 4847 4581 
L 4847 0 
L 4263 0 
L 4263 3834 
L 2931 0 
L 2384 0 
L 1059 3900 
L 1059 0 
L 475 0 
z
" transform="scale(0.015625)"/>
      <path id="ArialMT-6c" d="M 409 0 
L 409 4581 
L 972 4581 
L 972 0 
L 409 0 
z
" transform="scale(0.015625)"/>
      <path id="ArialMT-2d" d="M 203 1375 
L 203 1941 
L 1931 1941 
L 1931 1375 
L 203 1375 
z
" transform="scale(0.015625)"/>
     </defs>
     <use xlink:href="#ArialMT-4d"/>
     <use xlink:href="#ArialMT-6f" x="83.300781"/>
     <use xlink:href="#ArialMT-64" x="138.916016"/>
     <use xlink:href="#ArialMT-65" x="194.53125"/>
     <use xlink:href="#ArialMT-6c" x="250.146484"/>
     <use xlink:href="#ArialMT-6f" x="272.363281"/>
     <use xlink:href="#ArialMT-20" x="327.978516"/>
     <use xlink:href="#ArialMT-4d" x="355.761719"/>
     <use xlink:href="#ArialMT-2d" x="439.0625"/>
     <use xlink:href="#ArialMT-31" x="472.363281"/>
    </g>
   </g>
   <g id="legend_1">
    <g id="patch_47">
     <path d="M 122.4 86.38 
L 154.4 86.38 
L 154.4 75.18 
L 122.4 75.18 
z
" style="fill: #dc143c"/>
    </g>
    <g id="text_29">
     <!-- m1_heuristc -->
     <g style="fill: #262626" transform="translate(167.2 86.38) scale(0.16 -0.16)">
      <defs>
       <path id="ArialMT-5f" d="M -97 -1272 
L -97 -866 
L 3631 -866 
L 3631 -1272 
L -97 -1272 
z
" transform="scale(0.015625)"/>
       <path id="ArialMT-68" d="M 422 0 
L 422 4581 
L 984 4581 
L 984 2938 
Q 1378 3394 1978 3394 
Q 2347 3394 2619 3248 
Q 2891 3103 3008 2847 
Q 3125 2591 3125 2103 
L 3125 0 
L 2563 0 
L 2563 2103 
Q 2563 2525 2380 2717 
Q 2197 2909 1863 2909 
Q 1613 2909 1392 2779 
Q 1172 2650 1078 2428 
Q 984 2206 984 1816 
L 984 0 
L 422 0 
z
" transform="scale(0.015625)"/>
       <path id="ArialMT-75" d="M 2597 0 
L 2597 488 
Q 2209 -75 1544 -75 
Q 1250 -75 995 37 
Q 741 150 617 320 
Q 494 491 444 738 
Q 409 903 409 1263 
L 409 3319 
L 972 3319 
L 972 1478 
Q 972 1038 1006 884 
Q 1059 663 1231 536 
Q 1403 409 1656 409 
Q 1909 409 2131 539 
Q 2353 669 2445 892 
Q 2538 1116 2538 1541 
L 2538 3319 
L 3100 3319 
L 3100 0 
L 2597 0 
z
" transform="scale(0.015625)"/>
       <path id="ArialMT-74" d="M 1650 503 
L 1731 6 
Q 1494 -44 1306 -44 
Q 1000 -44 831 53 
Q 663 150 594 308 
Q 525 466 525 972 
L 525 2881 
L 113 2881 
L 113 3319 
L 525 3319 
L 525 4141 
L 1084 4478 
L 1084 3319 
L 1650 3319 
L 1650 2881 
L 1084 2881 
L 1084 941 
Q 1084 700 1114 631 
Q 1144 563 1211 522 
Q 1278 481 1403 481 
Q 1497 481 1650 503 
z
" transform="scale(0.015625)"/>
       <path id="ArialMT-63" d="M 2588 1216 
L 3141 1144 
Q 3050 572 2676 248 
Q 2303 -75 1759 -75 
Q 1078 -75 664 370 
Q 250 816 250 1647 
Q 250 2184 428 2587 
Q 606 2991 970 3192 
Q 1334 3394 1763 3394 
Q 2303 3394 2647 3120 
Q 2991 2847 3088 2344 
L 2541 2259 
Q 2463 2594 2264 2762 
Q 2066 2931 1784 2931 
Q 1359 2931 1093 2626 
Q 828 2322 828 1663 
Q 828 994 1084 691 
Q 1341 388 1753 388 
Q 2084 388 2306 591 
Q 2528 794 2588 1216 
z
" transform="scale(0.015625)"/>
      </defs>
      <use xlink:href="#ArialMT-6d"/>
      <use xlink:href="#ArialMT-31" x="83.300781"/>
      <use xlink:href="#ArialMT-5f" x="138.916016"/>
      <use xlink:href="#ArialMT-68" x="194.53125"/>
      <use xlink:href="#ArialMT-65" x="250.146484"/>
      <use xlink:href="#ArialMT-75" x="305.761719"/>
      <use xlink:href="#ArialMT-72" x="361.376953"/>
      <use xlink:href="#ArialMT-69" x="394.677734"/>
      <use xlink:href="#ArialMT-73" x="416.894531"/>
      <use xlink:href="#ArialMT-74" x="466.894531"/>
      <use xlink:href="#ArialMT-63" x="494.677734"/>
     </g>
    </g>
    <g id="patch_48">
     <path d="M 122.4 109.06 
L 154.4 109.06 
L 154.4 97.86 
L 122.4 97.86 
z
" style="fill: #4169e1"/>
    </g>
    <g id="text_30">
     <!-- m1_linear -->
     <g style="fill: #262626" transform="translate(167.2 109.06) scale(0.16 -0.16)">
      <defs>
       <path id="ArialMT-6e" d="M 422 0 
L 422 3319 
L 928 3319 
L 928 2847 
Q 1294 3394 1984 3394 
Q 2284 3394 2536 3286 
Q 2788 3178 2913 3003 
Q 3038 2828 3088 2588 
Q 3119 2431 3119 2041 
L 3119 0 
L 2556 0 
L 2556 2019 
Q 2556 2363 2490 2533 
Q 2425 2703 2258 2804 
Q 2091 2906 1866 2906 
Q 1506 2906 1245 2678 
Q 984 2450 984 1813 
L 984 0 
L 422 0 
z
" transform="scale(0.015625)"/>
       <path id="ArialMT-61" d="M 2588 409 
Q 2275 144 1986 34 
Q 1697 -75 1366 -75 
Q 819 -75 525 192 
Q 231 459 231 875 
Q 231 1119 342 1320 
Q 453 1522 633 1644 
Q 813 1766 1038 1828 
Q 1203 1872 1538 1913 
Q 2219 1994 2541 2106 
Q 2544 2222 2544 2253 
Q 2544 2597 2384 2738 
Q 2169 2928 1744 2928 
Q 1347 2928 1158 2789 
Q 969 2650 878 2297 
L 328 2372 
Q 403 2725 575 2942 
Q 747 3159 1072 3276 
Q 1397 3394 1825 3394 
Q 2250 3394 2515 3294 
Q 2781 3194 2906 3042 
Q 3031 2891 3081 2659 
Q 3109 2516 3109 2141 
L 3109 1391 
Q 3109 606 3145 398 
Q 3181 191 3288 0 
L 2700 0 
Q 2613 175 2588 409 
z
M 2541 1666 
Q 2234 1541 1622 1453 
Q 1275 1403 1131 1340 
Q 988 1278 909 1158 
Q 831 1038 831 891 
Q 831 666 1001 516 
Q 1172 366 1500 366 
Q 1825 366 2078 508 
Q 2331 650 2450 897 
Q 2541 1088 2541 1459 
L 2541 1666 
z
" transform="scale(0.015625)"/>
      </defs>
      <use xlink:href="#ArialMT-6d"/>
      <use xlink:href="#ArialMT-31" x="83.300781"/>
      <use xlink:href="#ArialMT-5f" x="138.916016"/>
      <use xlink:href="#ArialMT-6c" x="194.53125"/>
      <use xlink:href="#ArialMT-69" x="216.748047"/>
      <use xlink:href="#ArialMT-6e" x="238.964844"/>
      <use xlink:href="#ArialMT-65" x="294.580078"/>
      <use xlink:href="#ArialMT-61" x="350.195312"/>
      <use xlink:href="#ArialMT-72" x="405.810547"/>
     </g>
    </g>
   </g>
  </g>
 </g>
 <defs>
  <clipPath id="pcf28075978">
   <rect x="108" y="60.48" width="669.6" height="388.08"/>
  </clipPath>
 </defs>
</svg>
